<?xml version="1.0" encoding="UTF-8" standalone="no"?>
<!-- Created with Inkscape (http://www.inkscape.org/) -->

<svg
   xmlns:dc="http://purl.org/dc/elements/1.1/"
   xmlns:cc="http://creativecommons.org/ns#"
   xmlns:rdf="http://www.w3.org/1999/02/22-rdf-syntax-ns#"
   xmlns:svg="http://www.w3.org/2000/svg"
   xmlns="http://www.w3.org/2000/svg"
   xmlns:sodipodi="http://sodipodi.sourceforge.net/DTD/sodipodi-0.dtd"
   xmlns:inkscape="http://www.inkscape.org/namespaces/inkscape"
   width="468px"
   height="60px"
   id="svg3706"
   version="1.1"
   inkscape:version="0.48.4 r9939"
   sodipodi:docname="New document 14">
  <defs
     id="defs3708" />
  <sodipodi:namedview
     id="base"
     pagecolor="#ffffff"
     bordercolor="#666666"
     borderopacity="1.0"
     inkscape:pageopacity="0.0"
     inkscape:pageshadow="2"
     inkscape:zoom="1.2"
     inkscape:cx="234"
     inkscape:cy="30"
     inkscape:document-units="px"
     inkscape:current-layer="layer1"
     showgrid="false"
     inkscape:window-width="747"
     inkscape:window-height="492"
     inkscape:window-x="156"
     inkscape:window-y="156"
     inkscape:window-maximized="0" />
  <metadata
     id="metadata3711">
    <rdf:RDF>
      <cc:Work
         rdf:about="">
        <dc:format>image/svg+xml</dc:format>
        <dc:type
           rdf:resource="http://purl.org/dc/dcmitype/StillImage" />
        <dc:title></dc:title>
      </cc:Work>
    </rdf:RDF>
  </metadata>
  <g
     id="layer1"
     inkscape:label="Layer 1"
     inkscape:groupmode="layer">
    <path
       transform="matrix(4.1842249,0,0,4.2405716,-0.37331903,2.1530952)"
       sodipodi:type="arc"
       style="fill:#ffffff"
       id="path3314"
       sodipodi:cx="8.4017324"
       sodipodi:cy="8.7019806"
       sodipodi:rx="4.1220298"
       sodipodi:ry="4.1896038"
       d="m 12.523762,8.7019806 a 4.1220298,4.1896038 0 1 1 -8.2440593,0 4.1220298,4.1896038 0 1 1 8.2440593,0 z" />
    <path
       transform="matrix(4.1842249,0,0,4.2405716,-0.37331903,2.1530952)"
       sodipodi:type="star"
       style="fill:#d40055"
       id="path3380"
       sodipodi:sides="5"
       sodipodi:cx="7.9737625"
       sodipodi:cy="7.4405942"
       sodipodi:r1="6.8844724"
       sodipodi:r2="3.1255622"
       sodipodi:arg1="0.98097884"
       sodipodi:arg2="1.5987782"
       inkscape:flatsided="false"
       inkscape:rounded="0"
       inkscape:randomized="0"
       d="M 11.80297,13.161881 7.8863148,10.564933 3.7157854,12.850362 4.9753171,8.3229003 1.51298,5.0627276 6.208069,4.8615507 8.2387564,0.56122373 9.8809493,4.9643516 14.59832,5.566776 10.918162,8.4892356 z"
       inkscape:transform-center-x="-0.34263563"
       inkscape:transform-center-y="-2.4554679" />
    <path
       transform="matrix(4.1842249,0,0,4.2405716,-0.37331903,2.1530952)"
       sodipodi:type="star"
       style="fill:#000000"
       id="path3392"
       sodipodi:sides="5"
       sodipodi:cx="8.0188122"
       sodipodi:cy="7.1702971"
       sodipodi:r1="3.9172351"
       sodipodi:r2="1.9586176"
       sodipodi:arg1="1.0402384"
       sodipodi:arg2="1.668557"
       inkscape:flatsided="false"
       inkscape:rounded="0"
       inkscape:randomized="0"
       d="M 10.000991,10.54901 7.8276413,9.1195628 5.4179922,10.09954 6.1058753,7.590839 4.4292387,5.6019563 7.0277231,5.4809407 8.4011538,3.2717659 9.3192223,5.7056756 11.844686,6.3292132 9.8135989,7.9544677 z"
       inkscape:transform-center-x="-0.49436594"
       inkscape:transform-center-y="-1.1021637" />
    <path
       transform="matrix(4.1842249,0,0,4.2405716,-0.37331903,2.1530952)"
       sodipodi:type="star"
       style="fill:#ff0066"
       id="path3396"
       sodipodi:sides="5"
       sodipodi:cx="7.9287128"
       sodipodi:cy="7.3504949"
       sodipodi:r1="5.6728401"
       sodipodi:r2="2.4449296"
       sodipodi:arg1="0.97178095"
       sodipodi:arg2="1.5616349"
       inkscape:flatsided="false"
       inkscape:rounded="0"
       inkscape:randomized="0"
       d="M 11.127228,12.035643 7.9511116,9.7953219 4.4612672,11.840254 5.6104658,8.1272904 2.5871987,5.4401699 6.4735586,5.3857539 8.0949212,1.6800901 9.3476251,5.3594226 13.372949,5.7563169 10.260803,8.0846855 z"
       inkscape:transform-center-x="-0.2149062"
       inkscape:transform-center-y="-2.0890248" />
    <path
       transform="matrix(4.1842249,0,0,4.2405716,-0.37331903,2.1530952)"
       sodipodi:type="star"
       style="fill:#ff2a7f"
       id="path3404"
       sodipodi:sides="5"
       sodipodi:cx="7.9287128"
       sodipodi:cy="7.2153463"
       sodipodi:r1="4.2995734"
       sodipodi:r2="1.8147756"
       sodipodi:arg1="0.9566369"
       sodipodi:arg2="1.5846039"
       inkscape:flatsided="false"
       inkscape:rounded="0"
       inkscape:randomized="0"
       d="M 10.406436,10.729208 7.903656,9.0299489 5.3524905,10.657644 6.1951802,7.7522589 3.8587972,5.8289417 6.8823876,5.732574 7.9895889,2.9162039 9.0155809,5.76203 12.036252,5.9447348 9.6467595,7.7999199 z"
       inkscape:transform-center-x="-0.078711952"
       inkscape:transform-center-y="-1.6650204" />
    <path
       transform="matrix(4.1842249,0,0,4.2405716,-0.37331903,2.1530952)"
       sodipodi:type="star"
       style="fill:#ff5599"
       id="path3408"
       sodipodi:sides="5"
       sodipodi:cx="7.9287128"
       sodipodi:cy="7.1702971"
       sodipodi:r1="3.1370115"
       sodipodi:r2="1.3240783"
       sodipodi:arg1="0.95889389"
       sodipodi:arg2="1.5872124"
       inkscape:flatsided="false"
       inkscape:rounded="0"
       inkscape:randomized="0"
       d="M 9.730693,9.7381189 7.9069777,8.4941971 6.0434117,9.6775827 6.6628927,7.5587333 4.9615525,6.1520631 7.1681281,6.086464 7.980208,4.0337083 8.7244658,6.1120152 10.927699,6.2500127 9.1810999,7.6000761 z"
       inkscape:transform-center-x="-0.066582478"
       inkscape:transform-center-y="-1.205949" />
    <path
       transform="matrix(4.1842249,0,0,4.2405716,-0.37331903,2.1530952)"
       sodipodi:type="star"
       style="fill:#ff80b2"
       id="path3412"
       sodipodi:sides="5"
       sodipodi:cx="7.8836632"
       sodipodi:cy="7.1702971"
       sodipodi:r1="2.100003"
       sodipodi:r2="0.88637489"
       sodipodi:arg1="0.9530406"
       sodipodi:arg2="1.5813591"
       inkscape:flatsided="false"
       inkscape:rounded="0"
       inkscape:randomized="0"
       d="M 9.0999999,8.8821785 7.8743008,8.0566226 6.631436,8.8561025 7.0378244,7.4352826 5.8934075,6.5003009 7.3702685,6.4477417 7.9058447,5.0704113 8.4122065,6.4587479 9.8876278,6.5424926 8.7237156,7.4530909 z"
       inkscape:transform-center-x="-0.028680014"
       inkscape:transform-center-y="-0.82268066" />
    <path
       transform="matrix(4.1842249,0,0,4.2405716,-0.37331903,2.1530952)"
       sodipodi:type="star"
       style="fill:#ffaacc"
       id="path3414"
       sodipodi:sides="5"
       sodipodi:cx="7.838614"
       sodipodi:cy="7.2153463"
       sodipodi:r1="1.225479"
       sodipodi:r2="0.51725352"
       sodipodi:arg1="0.94200004"
       sodipodi:arg2="1.5703186"
       inkscape:flatsided="false"
       inkscape:rounded="0"
       inkscape:randomized="0"
       d="M 8.5594061,8.2064354 7.8388611,7.7325998 7.1187692,8.2071237 7.3467531,7.3754215 6.6729334,6.8372094 7.5343801,6.7970247 7.8380285,5.9898675 8.142448,6.7967343 9.0039327,6.8360957 8.3306276,7.3749514 z"
       inkscape:transform-center-x="0.0007576225"
       inkscape:transform-center-y="-0.49551416" />
    <path
       transform="matrix(4.1842249,0,0,4.2405716,-0.37331903,2.1530952)"
       sodipodi:type="star"
       style="fill:#ffd5e5"
       id="path3416"
       sodipodi:sides="5"
       sodipodi:cx="7.838614"
       sodipodi:cy="7.2153463"
       sodipodi:r1="0.57691514"
       sodipodi:r2="0.24350591"
       sodipodi:arg1="0.89605538"
       sodipodi:arg2="1.5243739"
       inkscape:flatsided="false"
       inkscape:rounded="0"
       inkscape:randomized="0"
       d="M 8.19901,7.6658414 7.8499141,7.4585899 7.5215362,7.697314 7.6107675,7.3012597 7.2822531,7.0627237 7.686497,7.0252002 7.8118418,6.6390527 7.972447,7.0119161 8.3784287,7.0118 8.0734443,7.2797657 z"
       inkscape:transform-center-x="0.03461693"
       inkscape:transform-center-y="-0.19999827" />
    <path
       transform="matrix(4.3752785,0,0,4.3067058,397.67096,0.44931249)"
       sodipodi:type="arc"
       style="fill:#ffffff"
       id="path3314-9"
       sodipodi:cx="8.4017324"
       sodipodi:cy="8.7019806"
       sodipodi:rx="4.1220298"
       sodipodi:ry="4.1896038"
       d="m 12.523762,8.7019806 a 4.1220298,4.1896038 0 1 1 -8.2440593,0 4.1220298,4.1896038 0 1 1 8.2440593,0 z" />
    <path
       transform="matrix(4.3752785,0,0,4.3067058,397.67096,0.44931249)"
       sodipodi:type="star"
       style="fill:#d40055"
       id="path3380-3"
       sodipodi:sides="5"
       sodipodi:cx="7.9737625"
       sodipodi:cy="7.4405942"
       sodipodi:r1="6.8844724"
       sodipodi:r2="3.1255622"
       sodipodi:arg1="0.98097884"
       sodipodi:arg2="1.5987782"
       inkscape:flatsided="false"
       inkscape:rounded="0"
       inkscape:randomized="0"
       d="M 11.80297,13.161881 7.8863148,10.564933 3.7157854,12.850362 4.9753171,8.3229003 1.51298,5.0627276 6.208069,4.8615507 8.2387564,0.56122373 9.8809493,4.9643516 14.59832,5.566776 10.918162,8.4892356 z"
       inkscape:transform-center-x="-0.35827951"
       inkscape:transform-center-y="-2.4937616" />
    <path
       transform="matrix(4.3752785,0,0,4.3067058,397.67096,0.44931249)"
       sodipodi:type="star"
       style="fill:#000000"
       id="path3392-1"
       sodipodi:sides="5"
       sodipodi:cx="8.0188122"
       sodipodi:cy="7.1702971"
       sodipodi:r1="3.9172351"
       sodipodi:r2="1.9586176"
       sodipodi:arg1="1.0402384"
       sodipodi:arg2="1.668557"
       inkscape:flatsided="false"
       inkscape:rounded="0"
       inkscape:randomized="0"
       d="M 10.000991,10.54901 7.8276413,9.1195628 5.4179922,10.09954 6.1058753,7.590839 4.4292387,5.6019563 7.0277231,5.4809407 8.4011538,3.2717659 9.3192223,5.7056756 11.844686,6.3292132 9.8135989,7.9544677 z"
       inkscape:transform-center-x="-0.5169379"
       inkscape:transform-center-y="-1.119352" />
    <path
       transform="matrix(4.3752785,0,0,4.3067058,397.67096,0.44931249)"
       sodipodi:type="star"
       style="fill:#ff0066"
       id="path3396-9"
       sodipodi:sides="5"
       sodipodi:cx="7.9287128"
       sodipodi:cy="7.3504949"
       sodipodi:r1="5.6728401"
       sodipodi:r2="2.4449296"
       sodipodi:arg1="0.97178095"
       sodipodi:arg2="1.5616349"
       inkscape:flatsided="false"
       inkscape:rounded="0"
       inkscape:randomized="0"
       d="M 11.127228,12.035643 7.9511116,9.7953219 4.4612672,11.840254 5.6104658,8.1272904 2.5871987,5.4401699 6.4735586,5.3857539 8.0949212,1.6800901 9.3476251,5.3594226 13.372949,5.7563169 10.260803,8.0846855 z"
       inkscape:transform-center-x="-0.22471789"
       inkscape:transform-center-y="-2.1216037" />
    <path
       transform="matrix(4.3752785,0,0,4.3067058,397.67096,0.44931249)"
       sodipodi:type="star"
       style="fill:#ff2a7f"
       id="path3404-8"
       sodipodi:sides="5"
       sodipodi:cx="7.9287128"
       sodipodi:cy="7.2153463"
       sodipodi:r1="4.2995734"
       sodipodi:r2="1.8147756"
       sodipodi:arg1="0.9566369"
       sodipodi:arg2="1.5846039"
       inkscape:flatsided="false"
       inkscape:rounded="0"
       inkscape:randomized="0"
       d="M 10.406436,10.729208 7.903656,9.0299489 5.3524905,10.657644 6.1951802,7.7522589 3.8587972,5.8289417 6.8823876,5.732574 7.9895889,2.9162039 9.0155809,5.76203 12.036252,5.9447348 9.6467595,7.7999199 z"
       inkscape:transform-center-x="-0.082304944"
       inkscape:transform-center-y="-1.6909868" />
    <path
       transform="matrix(4.3752785,0,0,4.3067058,397.67096,0.44931249)"
       sodipodi:type="star"
       style="fill:#ff5599"
       id="path3408-6"
       sodipodi:sides="5"
       sodipodi:cx="7.9287128"
       sodipodi:cy="7.1702971"
       sodipodi:r1="3.1370115"
       sodipodi:r2="1.3240783"
       sodipodi:arg1="0.95889389"
       sodipodi:arg2="1.5872124"
       inkscape:flatsided="false"
       inkscape:rounded="0"
       inkscape:randomized="0"
       d="M 9.730693,9.7381189 7.9069777,8.4941971 6.0434117,9.6775827 6.6628927,7.5587333 4.9615525,6.1520631 7.1681281,6.086464 7.980208,4.0337083 8.7244658,6.1120152 10.927699,6.2500127 9.1810999,7.6000761 z"
       inkscape:transform-center-x="-0.069621632"
       inkscape:transform-center-y="-1.2247557" />
    <path
       transform="matrix(4.3752785,0,0,4.3067058,397.67096,0.44931249)"
       sodipodi:type="star"
       style="fill:#ff80b2"
       id="path3412-5"
       sodipodi:sides="5"
       sodipodi:cx="7.8836632"
       sodipodi:cy="7.1702971"
       sodipodi:r1="2.100003"
       sodipodi:r2="0.88637489"
       sodipodi:arg1="0.9530406"
       sodipodi:arg2="1.5813591"
       inkscape:flatsided="false"
       inkscape:rounded="0"
       inkscape:randomized="0"
       d="M 9.0999999,8.8821785 7.8743008,8.0566226 6.631436,8.8561025 7.0378244,7.4352826 5.8934075,6.5003009 7.3702685,6.4477417 7.9058447,5.0704113 8.4122065,6.4587479 9.8876278,6.5424926 8.7237156,7.4530909 z"
       inkscape:transform-center-x="-0.02998852"
       inkscape:transform-center-y="-0.83551018" />
    <path
       transform="matrix(4.3752785,0,0,4.3067058,397.67096,0.44931249)"
       sodipodi:type="star"
       style="fill:#ffaacc"
       id="path3414-0"
       sodipodi:sides="5"
       sodipodi:cx="7.838614"
       sodipodi:cy="7.2153463"
       sodipodi:r1="1.225479"
       sodipodi:r2="0.51725352"
       sodipodi:arg1="0.94200004"
       sodipodi:arg2="1.5703186"
       inkscape:flatsided="false"
       inkscape:rounded="0"
       inkscape:randomized="0"
       d="M 8.5594061,8.2064354 7.8388611,7.7325998 7.1187692,8.2071237 7.3467531,7.3754215 6.6729334,6.8372094 7.5343801,6.7970247 7.8380285,5.9898675 8.142448,6.7967343 9.0039327,6.8360957 8.3306276,7.3749514 z"
       inkscape:transform-center-x="0.00079325918"
       inkscape:transform-center-y="-0.50324133" />
    <path
       transform="matrix(4.3752785,0,0,4.3067058,397.67096,0.44931249)"
       sodipodi:type="star"
       style="fill:#ffd5e5"
       id="path3416-2"
       sodipodi:sides="5"
       sodipodi:cx="7.838614"
       sodipodi:cy="7.2153463"
       sodipodi:r1="0.57691514"
       sodipodi:r2="0.24350591"
       sodipodi:arg1="0.89605538"
       sodipodi:arg2="1.5243739"
       inkscape:flatsided="false"
       inkscape:rounded="0"
       inkscape:randomized="0"
       d="M 8.19901,7.6658414 7.8499141,7.4585899 7.5215362,7.697314 7.6107675,7.3012597 7.2822531,7.0627237 7.686497,7.0252002 7.8118418,6.6390527 7.972447,7.0119161 8.3784287,7.0118 8.0734443,7.2797657 z"
       inkscape:transform-center-x="0.036198598"
       inkscape:transform-center-y="-0.20311668" />
    <path
       transform="matrix(4.4389629,0,0,4.2405716,84.241263,2.1530951)"
       sodipodi:type="arc"
       style="fill:#ffffff"
       id="path3314-8"
       sodipodi:cx="8.4017324"
       sodipodi:cy="8.7019806"
       sodipodi:rx="4.1220298"
       sodipodi:ry="4.1896038"
       d="m 12.523762,8.7019806 a 4.1220298,4.1896038 0 1 1 -8.2440593,0 4.1220298,4.1896038 0 1 1 8.2440593,0 z" />
    <path
       transform="matrix(4.4389629,0,0,4.2405716,84.241263,2.1530951)"
       sodipodi:type="star"
       style="fill:#d40055"
       id="path3380-6"
       sodipodi:sides="5"
       sodipodi:cx="7.9737625"
       sodipodi:cy="7.4405942"
       sodipodi:r1="6.8844724"
       sodipodi:r2="3.1255622"
       sodipodi:arg1="0.98097884"
       sodipodi:arg2="1.5987782"
       inkscape:flatsided="false"
       inkscape:rounded="0"
       inkscape:randomized="0"
       d="M 11.80297,13.161881 7.8863148,10.564933 3.7157854,12.850362 4.9753171,8.3229003 1.51298,5.0627276 6.208069,4.8615507 8.2387564,0.56122373 9.8809493,4.9643516 14.59832,5.566776 10.918162,8.4892356 z"
       inkscape:transform-center-x="-0.3634913"
       inkscape:transform-center-y="-2.4554681" />
    <path
       transform="matrix(4.4389629,0,0,4.2405716,84.241263,2.1530951)"
       sodipodi:type="star"
       style="fill:#000000"
       id="path3392-0"
       sodipodi:sides="5"
       sodipodi:cx="8.0188122"
       sodipodi:cy="7.1702971"
       sodipodi:r1="3.9172351"
       sodipodi:r2="1.9586176"
       sodipodi:arg1="1.0402384"
       sodipodi:arg2="1.668557"
       inkscape:flatsided="false"
       inkscape:rounded="0"
       inkscape:randomized="0"
       d="M 10.000991,10.54901 7.8276413,9.1195628 5.4179922,10.09954 6.1058753,7.590839 4.4292387,5.6019563 7.0277231,5.4809407 8.4011538,3.2717659 9.3192223,5.7056756 11.844686,6.3292132 9.8135989,7.9544677 z"
       inkscape:transform-center-x="-0.52445904"
       inkscape:transform-center-y="-1.1021639" />
    <path
       transform="matrix(4.4389629,0,0,4.2405716,84.241263,2.1530951)"
       sodipodi:type="star"
       style="fill:#ff0066"
       id="path3396-2"
       sodipodi:sides="5"
       sodipodi:cx="7.9287128"
       sodipodi:cy="7.3504949"
       sodipodi:r1="5.6728401"
       sodipodi:r2="2.4449296"
       sodipodi:arg1="0.97178095"
       sodipodi:arg2="1.5616349"
       inkscape:flatsided="false"
       inkscape:rounded="0"
       inkscape:randomized="0"
       d="M 11.127228,12.035643 7.9511116,9.7953219 4.4612672,11.840254 5.6104658,8.1272904 2.5871987,5.4401699 6.4735586,5.3857539 8.0949212,1.6800901 9.3476251,5.3594226 13.372949,5.7563169 10.260803,8.0846855 z"
       inkscape:transform-center-x="-0.22798563"
       inkscape:transform-center-y="-2.0890247" />
    <path
       transform="matrix(4.4389629,0,0,4.2405716,84.241263,2.1530951)"
       sodipodi:type="star"
       style="fill:#ff2a7f"
       id="path3404-4"
       sodipodi:sides="5"
       sodipodi:cx="7.9287128"
       sodipodi:cy="7.2153463"
       sodipodi:r1="4.2995734"
       sodipodi:r2="1.8147756"
       sodipodi:arg1="0.9566369"
       sodipodi:arg2="1.5846039"
       inkscape:flatsided="false"
       inkscape:rounded="0"
       inkscape:randomized="0"
       d="M 10.406436,10.729208 7.903656,9.0299489 5.3524905,10.657644 6.1951802,7.7522589 3.8587972,5.8289417 6.8823876,5.732574 7.9895889,2.9162039 9.0155809,5.76203 12.036252,5.9447348 9.6467595,7.7999199 z"
       inkscape:transform-center-x="-0.083499799"
       inkscape:transform-center-y="-1.6650206" />
    <path
       transform="matrix(4.4389629,0,0,4.2405716,84.241263,2.1530951)"
       sodipodi:type="star"
       style="fill:#ff5599"
       id="path3408-8"
       sodipodi:sides="5"
       sodipodi:cx="7.9287128"
       sodipodi:cy="7.1702971"
       sodipodi:r1="3.1370115"
       sodipodi:r2="1.3240783"
       sodipodi:arg1="0.95889389"
       sodipodi:arg2="1.5872124"
       inkscape:flatsided="false"
       inkscape:rounded="0"
       inkscape:randomized="0"
       d="M 9.730693,9.7381189 7.9069777,8.4941971 6.0434117,9.6775827 6.6628927,7.5587333 4.9615525,6.1520631 7.1681281,6.086464 7.980208,4.0337083 8.7244658,6.1120152 10.927699,6.2500127 9.1810999,7.6000761 z"
       inkscape:transform-center-x="-0.070631876"
       inkscape:transform-center-y="-1.2059489" />
    <path
       transform="matrix(4.4389629,0,0,4.2405716,84.241263,2.1530951)"
       sodipodi:type="star"
       style="fill:#ff80b2"
       id="path3412-6"
       sodipodi:sides="5"
       sodipodi:cx="7.8836632"
       sodipodi:cy="7.1702971"
       sodipodi:r1="2.100003"
       sodipodi:r2="0.88637489"
       sodipodi:arg1="0.9530406"
       sodipodi:arg2="1.5813591"
       inkscape:flatsided="false"
       inkscape:rounded="0"
       inkscape:randomized="0"
       d="M 9.0999999,8.8821785 7.8743008,8.0566226 6.631436,8.8561025 7.0378244,7.4352826 5.8934075,6.5003009 7.3702685,6.4477417 7.9058447,5.0704113 8.4122065,6.4587479 9.8876278,6.5424926 8.7237156,7.4530909 z"
       inkscape:transform-center-x="-0.030421888"
       inkscape:transform-center-y="-0.82268072" />
    <path
       transform="matrix(4.4389629,0,0,4.2405716,84.241263,2.1530951)"
       sodipodi:type="star"
       style="fill:#ffaacc"
       id="path3414-5"
       sodipodi:sides="5"
       sodipodi:cx="7.838614"
       sodipodi:cy="7.2153463"
       sodipodi:r1="1.225479"
       sodipodi:r2="0.51725352"
       sodipodi:arg1="0.94200004"
       sodipodi:arg2="1.5703186"
       inkscape:flatsided="false"
       inkscape:rounded="0"
       inkscape:randomized="0"
       d="M 8.5594061,8.2064354 7.8388611,7.7325998 7.1187692,8.2071237 7.3467531,7.3754215 6.6729334,6.8372094 7.5343801,6.7970247 7.8380285,5.9898675 8.142448,6.7967343 9.0039327,6.8360957 8.3306276,7.3749514 z"
       inkscape:transform-center-x="0.0008079299"
       inkscape:transform-center-y="-0.49551421" />
    <path
       transform="matrix(4.4389629,0,0,4.2405716,84.241263,2.1530951)"
       sodipodi:type="star"
       style="fill:#ffd5e5"
       id="path3416-0"
       sodipodi:sides="5"
       sodipodi:cx="7.838614"
       sodipodi:cy="7.2153463"
       sodipodi:r1="0.57691514"
       sodipodi:r2="0.24350591"
       sodipodi:arg1="0.89605538"
       sodipodi:arg2="1.5243739"
       inkscape:flatsided="false"
       inkscape:rounded="0"
       inkscape:randomized="0"
       d="M 8.19901,7.6658414 7.8499141,7.4585899 7.5215362,7.697314 7.6107675,7.3012597 7.2822531,7.0627237 7.686497,7.0252002 7.8118418,6.6390527 7.972447,7.0119161 8.3784287,7.0118 8.0734443,7.2797657 z"
       inkscape:transform-center-x="0.036728612"
       inkscape:transform-center-y="-0.19999832" />
    <path
       transform="matrix(4.3752785,0,0,4.3067057,301.83763,0.44931166)"
       sodipodi:type="arc"
       style="fill:#ffffff"
       id="path3314-90"
       sodipodi:cx="8.4017324"
       sodipodi:cy="8.7019806"
       sodipodi:rx="4.1220298"
       sodipodi:ry="4.1896038"
       d="m 12.523762,8.7019806 a 4.1220298,4.1896038 0 1 1 -8.2440593,0 4.1220298,4.1896038 0 1 1 8.2440593,0 z" />
    <path
       transform="matrix(4.3752785,0,0,4.3067057,301.83763,0.44931166)"
       sodipodi:type="star"
       style="fill:#d40055"
       id="path3380-0"
       sodipodi:sides="5"
       sodipodi:cx="7.9737625"
       sodipodi:cy="7.4405942"
       sodipodi:r1="6.8844724"
       sodipodi:r2="3.1255622"
       sodipodi:arg1="0.98097884"
       sodipodi:arg2="1.5987782"
       inkscape:flatsided="false"
       inkscape:rounded="0"
       inkscape:randomized="0"
       d="M 11.80297,13.161881 7.8863148,10.564933 3.7157854,12.850362 4.9753171,8.3229003 1.51298,5.0627276 6.208069,4.8615507 8.2387564,0.56122373 9.8809493,4.9643516 14.59832,5.566776 10.918162,8.4892356 z"
       inkscape:transform-center-x="-0.35828702"
       inkscape:transform-center-y="-2.4937628" />
    <path
       transform="matrix(4.3752785,0,0,4.3067057,301.83763,0.44931166)"
       sodipodi:type="star"
       style="fill:#000000"
       id="path3392-6"
       sodipodi:sides="5"
       sodipodi:cx="8.0188122"
       sodipodi:cy="7.1702971"
       sodipodi:r1="3.9172351"
       sodipodi:r2="1.9586176"
       sodipodi:arg1="1.0402384"
       sodipodi:arg2="1.668557"
       inkscape:flatsided="false"
       inkscape:rounded="0"
       inkscape:randomized="0"
       d="M 10.000991,10.54901 7.8276413,9.1195628 5.4179922,10.09954 6.1058753,7.590839 4.4292387,5.6019563 7.0277231,5.4809407 8.4011538,3.2717659 9.3192223,5.7056756 11.844686,6.3292132 9.8135989,7.9544677 z"
       inkscape:transform-center-x="-0.51694541"
       inkscape:transform-center-y="-1.1193531" />
    <path
       transform="matrix(4.3752785,0,0,4.3067057,301.83763,0.44931166)"
       sodipodi:type="star"
       style="fill:#ff0066"
       id="path3396-1"
       sodipodi:sides="5"
       sodipodi:cx="7.9287128"
       sodipodi:cy="7.3504949"
       sodipodi:r1="5.6728401"
       sodipodi:r2="2.4449296"
       sodipodi:arg1="0.97178095"
       sodipodi:arg2="1.5616349"
       inkscape:flatsided="false"
       inkscape:rounded="0"
       inkscape:randomized="0"
       d="M 11.127228,12.035643 7.9511116,9.7953219 4.4612672,11.840254 5.6104658,8.1272904 2.5871987,5.4401699 6.4735586,5.3857539 8.0949212,1.6800901 9.3476251,5.3594226 13.372949,5.7563169 10.260803,8.0846855 z"
       inkscape:transform-center-x="-0.2247254"
       inkscape:transform-center-y="-2.1216048" />
    <path
       transform="matrix(4.3752785,0,0,4.3067057,301.83763,0.44931166)"
       sodipodi:type="star"
       style="fill:#ff2a7f"
       id="path3404-3"
       sodipodi:sides="5"
       sodipodi:cx="7.9287128"
       sodipodi:cy="7.2153463"
       sodipodi:r1="4.2995734"
       sodipodi:r2="1.8147756"
       sodipodi:arg1="0.9566369"
       sodipodi:arg2="1.5846039"
       inkscape:flatsided="false"
       inkscape:rounded="0"
       inkscape:randomized="0"
       d="M 10.406436,10.729208 7.903656,9.0299489 5.3524905,10.657644 6.1951802,7.7522589 3.8587972,5.8289417 6.8823876,5.732574 7.9895889,2.9162039 9.0155809,5.76203 12.036252,5.9447348 9.6467595,7.7999199 z"
       inkscape:transform-center-x="-0.082312459"
       inkscape:transform-center-y="-1.6909881" />
    <path
       transform="matrix(4.3752785,0,0,4.3067057,301.83763,0.44931166)"
       sodipodi:type="star"
       style="fill:#ff5599"
       id="path3408-89"
       sodipodi:sides="5"
       sodipodi:cx="7.9287128"
       sodipodi:cy="7.1702971"
       sodipodi:r1="3.1370115"
       sodipodi:r2="1.3240783"
       sodipodi:arg1="0.95889389"
       sodipodi:arg2="1.5872124"
       inkscape:flatsided="false"
       inkscape:rounded="0"
       inkscape:randomized="0"
       d="M 9.730693,9.7381189 7.9069777,8.4941971 6.0434117,9.6775827 6.6628927,7.5587333 4.9615525,6.1520631 7.1681281,6.086464 7.980208,4.0337083 8.7244658,6.1120152 10.927699,6.2500127 9.1810999,7.6000761 z"
       inkscape:transform-center-x="-0.069629147"
       inkscape:transform-center-y="-1.224757" />
    <path
       transform="matrix(4.3752785,0,0,4.3067057,301.83763,0.44931166)"
       sodipodi:type="star"
       style="fill:#ff80b2"
       id="path3412-3"
       sodipodi:sides="5"
       sodipodi:cx="7.8836632"
       sodipodi:cy="7.1702971"
       sodipodi:r1="2.100003"
       sodipodi:r2="0.88637489"
       sodipodi:arg1="0.9530406"
       sodipodi:arg2="1.5813591"
       inkscape:flatsided="false"
       inkscape:rounded="0"
       inkscape:randomized="0"
       d="M 9.0999999,8.8821785 7.8743008,8.0566226 6.631436,8.8561025 7.0378244,7.4352826 5.8934075,6.5003009 7.3702685,6.4477417 7.9058447,5.0704113 8.4122065,6.4587479 9.8876278,6.5424926 8.7237156,7.4530909 z"
       inkscape:transform-center-x="-0.029996035"
       inkscape:transform-center-y="-0.83551141" />
    <path
       transform="matrix(4.3752785,0,0,4.3067057,301.83763,0.44931166)"
       sodipodi:type="star"
       style="fill:#ffaacc"
       id="path3414-4"
       sodipodi:sides="5"
       sodipodi:cx="7.838614"
       sodipodi:cy="7.2153463"
       sodipodi:r1="1.225479"
       sodipodi:r2="0.51725352"
       sodipodi:arg1="0.94200004"
       sodipodi:arg2="1.5703186"
       inkscape:flatsided="false"
       inkscape:rounded="0"
       inkscape:randomized="0"
       d="M 8.5594061,8.2064354 7.8388611,7.7325998 7.1187692,8.2071237 7.3467531,7.3754215 6.6729334,6.8372094 7.5343801,6.7970247 7.8380285,5.9898675 8.142448,6.7967343 9.0039327,6.8360957 8.3306276,7.3749514 z"
       inkscape:transform-center-x="0.00078574319"
       inkscape:transform-center-y="-0.50324256" />
    <path
       transform="matrix(4.3752785,0,0,4.3067057,301.83763,0.44931166)"
       sodipodi:type="star"
       style="fill:#ffd5e5"
       id="path3416-4"
       sodipodi:sides="5"
       sodipodi:cx="7.838614"
       sodipodi:cy="7.2153463"
       sodipodi:r1="0.57691514"
       sodipodi:r2="0.24350591"
       sodipodi:arg1="0.89605538"
       sodipodi:arg2="1.5243739"
       inkscape:flatsided="false"
       inkscape:rounded="0"
       inkscape:randomized="0"
       d="M 8.19901,7.6658414 7.8499141,7.4585899 7.5215362,7.697314 7.6107675,7.3012597 7.2822531,7.0627237 7.686497,7.0252002 7.8118418,6.6390527 7.972447,7.0119161 8.3784287,7.0118 8.0734443,7.2797657 z"
       inkscape:transform-center-x="0.036191082"
       inkscape:transform-center-y="-0.20311793" />
    <path
       transform="matrix(4.7573855,0,0,4.2405717,187.92618,0.48642776)"
       sodipodi:type="arc"
       style="fill:#ffffff"
       id="path3314-6"
       sodipodi:cx="8.4017324"
       sodipodi:cy="8.7019806"
       sodipodi:rx="4.1220298"
       sodipodi:ry="4.1896038"
       d="m 12.523762,8.7019806 a 4.1220298,4.1896038 0 1 1 -8.2440593,0 4.1220298,4.1896038 0 1 1 8.2440593,0 z" />
    <path
       transform="matrix(4.7573855,0,0,4.2405717,187.92618,0.48642776)"
       sodipodi:type="star"
       style="fill:#d40055"
       id="path3380-06"
       sodipodi:sides="5"
       sodipodi:cx="7.9737625"
       sodipodi:cy="7.4405942"
       sodipodi:r1="6.8844724"
       sodipodi:r2="3.1255622"
       sodipodi:arg1="0.98097884"
       sodipodi:arg2="1.5987782"
       inkscape:flatsided="false"
       inkscape:rounded="0"
       inkscape:randomized="0"
       d="M 11.80297,13.161881 7.8863148,10.564933 3.7157854,12.850362 4.9753171,8.3229003 1.51298,5.0627276 6.208069,4.8615507 8.2387564,0.56122373 9.8809493,4.9643516 14.59832,5.566776 10.918162,8.4892356 z"
       inkscape:transform-center-x="-0.38958263"
       inkscape:transform-center-y="-2.4554677" />
    <path
       transform="matrix(4.7573855,0,0,4.2405717,187.92618,0.48642776)"
       sodipodi:type="star"
       style="fill:#000000"
       id="path3392-61"
       sodipodi:sides="5"
       sodipodi:cx="8.0188122"
       sodipodi:cy="7.1702971"
       sodipodi:r1="3.9172351"
       sodipodi:r2="1.9586176"
       sodipodi:arg1="1.0402384"
       sodipodi:arg2="1.668557"
       inkscape:flatsided="false"
       inkscape:rounded="0"
       inkscape:randomized="0"
       d="M 10.000991,10.54901 7.8276413,9.1195628 5.4179922,10.09954 6.1058753,7.590839 4.4292387,5.6019563 7.0277231,5.4809407 8.4011538,3.2717659 9.3192223,5.7056756 11.844686,6.3292132 9.8135989,7.9544677 z"
       inkscape:transform-center-x="-0.56209717"
       inkscape:transform-center-y="-1.1021635" />
    <path
       transform="matrix(4.7573855,0,0,4.2405717,187.92618,0.48642776)"
       sodipodi:type="star"
       style="fill:#ff0066"
       id="path3396-8"
       sodipodi:sides="5"
       sodipodi:cx="7.9287128"
       sodipodi:cy="7.3504949"
       sodipodi:r1="5.6728401"
       sodipodi:r2="2.4449296"
       sodipodi:arg1="0.97178095"
       sodipodi:arg2="1.5616349"
       inkscape:flatsided="false"
       inkscape:rounded="0"
       inkscape:randomized="0"
       d="M 11.127228,12.035643 7.9511116,9.7953219 4.4612672,11.840254 5.6104658,8.1272904 2.5871987,5.4401699 6.4735586,5.3857539 8.0949212,1.6800901 9.3476251,5.3594226 13.372949,5.7563169 10.260803,8.0846855 z"
       inkscape:transform-center-x="-0.24435666"
       inkscape:transform-center-y="-2.0890245" />
    <path
       transform="matrix(4.7573855,0,0,4.2405717,187.92618,0.48642776)"
       sodipodi:type="star"
       style="fill:#ff2a7f"
       id="path3404-49"
       sodipodi:sides="5"
       sodipodi:cx="7.9287128"
       sodipodi:cy="7.2153463"
       sodipodi:r1="4.2995734"
       sodipodi:r2="1.8147756"
       sodipodi:arg1="0.9566369"
       sodipodi:arg2="1.5846039"
       inkscape:flatsided="false"
       inkscape:rounded="0"
       inkscape:randomized="0"
       d="M 10.406436,10.729208 7.903656,9.0299489 5.3524905,10.657644 6.1951802,7.7522589 3.8587972,5.8289417 6.8823876,5.732574 7.9895889,2.9162039 9.0155809,5.76203 12.036252,5.9447348 9.6467595,7.7999199 z"
       inkscape:transform-center-x="-0.089506345"
       inkscape:transform-center-y="-1.6650204" />
    <path
       transform="matrix(4.7573855,0,0,4.2405717,187.92618,0.48642776)"
       sodipodi:type="star"
       style="fill:#ff5599"
       id="path3408-63"
       sodipodi:sides="5"
       sodipodi:cx="7.9287128"
       sodipodi:cy="7.1702971"
       sodipodi:r1="3.1370115"
       sodipodi:r2="1.3240783"
       sodipodi:arg1="0.95889389"
       sodipodi:arg2="1.5872124"
       inkscape:flatsided="false"
       inkscape:rounded="0"
       inkscape:randomized="0"
       d="M 9.730693,9.7381189 7.9069777,8.4941971 6.0434117,9.6775827 6.6628927,7.5587333 4.9615525,6.1520631 7.1681281,6.086464 7.980208,4.0337083 8.7244658,6.1120152 10.927699,6.2500127 9.1810999,7.6000761 z"
       inkscape:transform-center-x="-0.07571536"
       inkscape:transform-center-y="-1.2059487" />
    <path
       transform="matrix(4.7573855,0,0,4.2405717,187.92618,0.48642776)"
       sodipodi:type="star"
       style="fill:#ff80b2"
       id="path3412-7"
       sodipodi:sides="5"
       sodipodi:cx="7.8836632"
       sodipodi:cy="7.1702971"
       sodipodi:r1="2.100003"
       sodipodi:r2="0.88637489"
       sodipodi:arg1="0.9530406"
       sodipodi:arg2="1.5813591"
       inkscape:flatsided="false"
       inkscape:rounded="0"
       inkscape:randomized="0"
       d="M 9.0999999,8.8821785 7.8743008,8.0566226 6.631436,8.8561025 7.0378244,7.4352826 5.8934075,6.5003009 7.3702685,6.4477417 7.9058447,5.0704113 8.4122065,6.4587479 9.8876278,6.5424926 8.7237156,7.4530909 z"
       inkscape:transform-center-x="-0.03262096"
       inkscape:transform-center-y="-0.82268044" />
    <path
       transform="matrix(4.7573855,0,0,4.2405717,187.92618,0.48642776)"
       sodipodi:type="star"
       style="fill:#ffaacc"
       id="path3414-8"
       sodipodi:sides="5"
       sodipodi:cx="7.838614"
       sodipodi:cy="7.2153463"
       sodipodi:r1="1.225479"
       sodipodi:r2="0.51725352"
       sodipodi:arg1="0.94200004"
       sodipodi:arg2="1.5703186"
       inkscape:flatsided="false"
       inkscape:rounded="0"
       inkscape:randomized="0"
       d="M 8.5594061,8.2064354 7.8388611,7.7325998 7.1187692,8.2071237 7.3467531,7.3754215 6.6729334,6.8372094 7.5343801,6.7970247 7.8380285,5.9898675 8.142448,6.7967343 9.0039327,6.8360957 8.3306276,7.3749514 z"
       inkscape:transform-center-x="0.00084908871"
       inkscape:transform-center-y="-0.49551394" />
    <path
       transform="matrix(4.7573855,0,0,4.2405717,187.92618,0.48642776)"
       sodipodi:type="star"
       style="fill:#ffd5e5"
       id="path3416-8"
       sodipodi:sides="5"
       sodipodi:cx="7.838614"
       sodipodi:cy="7.2153463"
       sodipodi:r1="0.57691514"
       sodipodi:r2="0.24350591"
       sodipodi:arg1="0.89605538"
       sodipodi:arg2="1.5243739"
       inkscape:flatsided="false"
       inkscape:rounded="0"
       inkscape:randomized="0"
       d="M 8.19901,7.6658414 7.8499141,7.4585899 7.5215362,7.697314 7.6107675,7.3012597 7.2822531,7.0627237 7.686497,7.0252002 7.8118418,6.6390527 7.972447,7.0119161 8.3784287,7.0118 8.0734443,7.2797657 z"
       inkscape:transform-center-x="0.039346488"
       inkscape:transform-center-y="-0.19999803" />
  </g>
</svg>
